<svg xmlns="http://www.w3.org/2000/svg" viewBox="0 0 33 33">
  <defs>
    <style>
      .cls-1 {
        fill: #0d47a1;
      }

      .cls-2 {
        fill: #fff;
      }
    </style>
  </defs>
  <g id="Group_9" data-name="Group 9" transform="translate(-9 -147)">
    <circle id="Ellipse_5" data-name="Ellipse 5" class="cls-1" cx="16.5" cy="16.5" r="16.5" transform="translate(9 147)"/>
    <g id="avatar-client" transform="translate(17.329 154.071)">
      <g id="Group_4" data-name="Group 4" transform="translate(0 0)">
        <g id="Group_2" data-name="Group 2" transform="translate(3.289 0)">
          <path id="Path_32" data-name="Path 32" class="cls-2" d="M34.568,18.436a4.568,4.568,0,1,1,4.568-4.568A4.582,4.582,0,0,1,34.568,18.436Zm0-7.743a3.2,3.2,0,1,0,3.2,3.2A3.207,3.207,0,0,0,34.568,10.693Z" transform="translate(-30 -9.3)"/>
        </g>
        <g id="Group_3" data-name="Group 3" transform="translate(0 9.89)">
          <path id="Path_33" data-name="Path 33" class="cls-2" d="M31.314,61.279h-1.37V60.137a6.17,6.17,0,0,0-6.167-6.167h-.64a6.17,6.17,0,0,0-6.167,6.167v1.142H15.6V60.137A7.545,7.545,0,0,1,23.137,52.6h.64a7.545,7.545,0,0,1,7.537,7.537Z" transform="translate(-15.6 -52.6)"/>
        </g>
      </g>
    </g>
  </g>
</svg>
