<svg xmlns="http://www.w3.org/2000/svg" viewBox="0 0 23.082 19.048">
  <defs>
    <style>
      .cls-1 {
        fill: none;
        stroke: #fff;
        stroke-miterlimit: 10;
      }
    </style>
  </defs>
  <g id="noun_clients_808206" transform="translate(-1.5 -7.5)">
    <g id="Group_14" data-name="Group 14" transform="translate(2 8)">
      <g id="Group_11" data-name="Group 11" transform="translate(3.648 0.743)">
        <ellipse id="Ellipse_6" data-name="Ellipse 6" class="cls-1" cx="2.928" cy="3.238" rx="2.928" ry="3.238" transform="translate(4.464)"/>
        <path id="Path_35" data-name="Path 35" class="cls-1" d="M20.689,25.5l-3.7,4.087L13.3,25.5l-.528.159A4.849,4.849,0,0,0,9.6,30.331v3.928H24.337V30.331a4.849,4.849,0,0,0-3.168-4.671Z" transform="translate(-9.6 -16.954)"/>
      </g>
      <g id="Group_12" data-name="Group 12" transform="translate(12.769)">
        <path id="Path_36" data-name="Path 36" class="cls-1" d="M28.6,9.38A2.648,2.648,0,0,1,30.9,8a2.945,2.945,0,0,1,2.784,3.079A2.945,2.945,0,0,1,30.9,14.158a2.286,2.286,0,0,1-1.536-.531" transform="translate(-28.6 -8)"/>
        <path id="Path_37" data-name="Path 37" class="cls-1" d="M38.428,31.634h3.7V27.918a4.588,4.588,0,0,0-2.976-4.459L38.62,23.3,36.7,25.423" transform="translate(-32.812 -15.178)"/>
      </g>
      <g id="Group_13" data-name="Group 13">
        <path id="Path_38" data-name="Path 38" class="cls-1" d="M15.888,9.38A2.648,2.648,0,0,0,13.584,8,2.945,2.945,0,0,0,10.8,11.079a2.945,2.945,0,0,0,2.784,3.079,2.286,2.286,0,0,0,1.536-.531" transform="translate(-6.576 -8)"/>
        <path id="Path_39" data-name="Path 39" class="cls-1" d="M5.7,31.634H2V27.918a4.588,4.588,0,0,1,2.976-4.459L5.5,23.3l1.92,2.123" transform="translate(-2 -15.178)"/>
      </g>
    </g>
  </g>
</svg>
