<svg xmlns="http://www.w3.org/2000/svg" viewBox="0 0 143.416 149.104">
  <defs>
    <style>
      .cls-1 {
        fill: #fff;
      }
    </style>
  </defs>
  <g id="noun_loading_391059" transform="translate(-895 -468)">
    <path id="Path_41" data-name="Path 41" class="cls-1" d="M153.231,70.671a46.661,46.661,0,0,0-1.547-4.835c-.58-1.741-1.354-3.094-1.934-4.448a22.047,22.047,0,0,0-1.934-3.674c.58.967.967,2.127,1.547,3.288.387,1.354,1.16,2.9,1.547,4.448a46.669,46.669,0,0,0,1.547,4.835,68.471,68.471,0,0,1-6.575,49.121,63.457,63.457,0,0,1-20.306,21.66A45.042,45.042,0,0,1,119,144.932c-.967.387-2.321,1.16-3.481,1.547a29.753,29.753,0,0,0-3.674,1.547,48.475,48.475,0,0,1-15.665,3.481l-2.127.193-2.127.193H87.865c-2.707-.193-5.608-.193-8.122-.967-2.707-.193-5.415-1.16-7.929-1.547a68.173,68.173,0,0,1-7.542-2.9c-2.321-1.16-4.641-2.321-7.155-3.674a19.161,19.161,0,0,1-3.288-2.127l-1.547-1.16a4.654,4.654,0,0,1-1.547-1.16l-1.547-1.16-.774-.774-.387-.387-.193-.193-.193-.193h0l-2.9-2.9a36.144,36.144,0,0,1-5.222-6,24.271,24.271,0,0,1-2.127-3.288l-2.127-3.288L33.523,116.7c-.387-.967-1.16-2.321-1.547-3.481-.774-2.321-1.934-4.641-2.321-7.155a20.4,20.4,0,0,1-.967-3.674l-.58-3.481a42.664,42.664,0,0,1-.774-7.155,44.246,44.246,0,0,1,.193-7.155c.387-2.321.58-4.641,1.16-6.769.193-1.16.58-2.127.774-3.288l.193-1.547.58-1.547a62.666,62.666,0,0,1,12.57-21.273c1.547-1.547,2.707-2.9,4.061-4.061a21.081,21.081,0,0,1,4.255-3.481,50.706,50.706,0,0,1,8.316-5.415A58.762,58.762,0,0,1,74.328,31.8a36.022,36.022,0,0,1,10.056-1.16,12.346,12.346,0,0,1,2.707,0h.967a9.669,9.669,0,0,0,0-19.339h-.58a2.807,2.807,0,0,1-1.16.193,26.242,26.242,0,0,0-3.481.193,66.374,66.374,0,0,0-13.344,2.321,76.132,76.132,0,0,0-19.146,7.929A68.81,68.81,0,0,0,39.9,29.285a37.258,37.258,0,0,0-4.835,4.641l-1.16,1.16c-.387.387-.967.774-1.16,1.354a34.573,34.573,0,0,0-2.514,2.707A78.521,78.521,0,0,0,15.731,66.8l-.58,1.934-.387,2.127c-.193,1.354-.58,2.707-.774,4.061a63.048,63.048,0,0,0-.967,8.7,65.389,65.389,0,0,0,.193,8.7c.387,2.9.387,5.8,1.16,8.9.193,1.354.58,2.9.774,4.448.387,1.547.967,2.9,1.354,4.448a55.532,55.532,0,0,0,3.288,8.509,40.922,40.922,0,0,0,2.127,4.061c.774,1.547,1.547,2.707,2.321,4.061.967,1.354,1.741,2.707,2.707,3.868s1.741,2.514,2.9,3.674c2.127,2.514,4.255,5.222,6.382,6.769l3.288,3.094.193.193h0l.193.193.193.193h.387l.967.774,1.934,1.354c.774.387,1.16.967,1.934,1.354l2.127,1.16c1.547.774,2.707,1.741,4.061,2.321a67.472,67.472,0,0,0,8.509,3.868c2.9,1.354,6,1.934,8.9,2.9A68.558,68.558,0,0,0,78,160.017a71.465,71.465,0,0,0,9.089.387c1.547,0,3.094-.193,4.641-.193l2.321-.193,2.127-.193a72.916,72.916,0,0,0,17.212-4.641c1.547-.58,2.707-1.16,4.061-1.741a38.354,38.354,0,0,0,3.868-2.127,66.02,66.02,0,0,0,7.155-4.835c.967-.774,1.934-1.741,3.094-2.514l1.547-1.16.387-.387.193-.193h0v.193l.193-.193.774-.774,2.9-2.9L139.114,137l1.354-1.547a69.333,69.333,0,0,0,4.835-6.382c.774-1.16,1.354-2.127,2.127-3.288.58-1.354,1.16-2.321,1.741-3.481a69.669,69.669,0,0,0,4.061-51.635Z" transform="translate(882.025 456.7)"/>
  </g>
</svg>
