<svg xmlns="http://www.w3.org/2000/svg" viewBox="0 0 20 14.151">
  <defs>
    <style>
      .cls-1 {
        fill: #fff;
      }
    </style>
  </defs>
  <g id="noun_List_857912" transform="translate(0 0)">
    <path id="Path_26" data-name="Path 26" class="cls-1" d="M21.216,11.476H7.35a.524.524,0,0,0,0,1.048H21.215a.524.524,0,0,0,0-1.048Z" transform="translate(-1.804 -4.924)"/>
    <path id="Path_27" data-name="Path 27" class="cls-1" d="M21.3,6.322H7.35a.524.524,0,0,0,0,1.048H21.3a.524.524,0,0,0,0-1.048Z" transform="translate(-1.804 -4.924)"/>
    <path id="Path_28" data-name="Path 28" class="cls-1" d="M21.3,16.8H7.35a.524.524,0,0,0,0,1.048H21.3a.524.524,0,0,0,0-1.048Z" transform="translate(-1.804 -4.924)"/>
    <path id="Path_29" data-name="Path 29" class="cls-1" d="M3.369,4.924a1.835,1.835,0,0,0,0,3.668,1.835,1.835,0,0,0,0-3.668Zm0,2.621a.787.787,0,1,1,.756-.786A.772.772,0,0,1,3.369,7.545Z" transform="translate(-1.605 -4.924)"/>
    <path id="Path_30" data-name="Path 30" class="cls-1" d="M3.369,10.166a1.835,1.835,0,0,0,0,3.668,1.835,1.835,0,0,0,0-3.668Zm0,2.62A.787.787,0,1,1,4.126,12,.772.772,0,0,1,3.369,12.786Z" transform="translate(-1.605 -4.924)"/>
    <path id="Path_31" data-name="Path 31" class="cls-1" d="M3.369,15.407a1.835,1.835,0,0,0,0,3.668,1.835,1.835,0,0,0,0-3.668Zm0,2.62a.787.787,0,1,1,.756-.786A.772.772,0,0,1,3.369,18.027Z" transform="translate(-1.605 -4.924)"/>
  </g>
</svg>
